<?xml version="1.0" encoding="utf-8"?>
<!-- Generator: Adobe Illustrator 27.5.0, SVG Export Plug-In . SVG Version: 6.00 Build 0)  -->
<svg version="1.1" xmlns="http://www.w3.org/2000/svg" xmlns:xlink="http://www.w3.org/1999/xlink" x="0px" y="0px"
	 viewBox="0 0 750 500" style="enable-background:new 0 0 750 500;" xml:space="preserve">
<g id="BACKGROUND">
	<rect style="fill:#04092C;" width="750" height="500"/>
</g>
<g id="OBJECTS">
	<g>
		<defs>
			<rect id="SVGID_1_" width="750" height="500"/>
		</defs>
		<clipPath id="SVGID_00000133527994723488953500000007561506386379964080_">
			<use xlink:href="#SVGID_1_"  style="overflow:visible;"/>
		</clipPath>
		<g style="clip-path:url(#SVGID_00000133527994723488953500000007561506386379964080_);">
			<g>
				<path style="fill:#052257;" d="M715.012,96.981c0.885-1.204,1.487-1.941,2.67-1.941s1.785,0.738,2.67,1.941
					c0.875,1.189,1.963,2.67,4.11,2.67c2.148,0,3.236-1.481,4.111-2.67c0.885-1.204,1.487-1.941,2.67-1.941
					c1.183,0,1.785,0.738,2.67,1.941c0.875,1.189,1.963,2.67,4.111,2.67s3.236-1.481,4.111-2.67c0.885-1.204,1.487-1.941,2.67-1.941
					s1.785,0.738,2.67,1.941c0.875,1.189,1.963,2.67,4.111,2.67s3.236-1.48,4.111-2.67c0.134-0.182,0.26-0.349,0.384-0.509
					c-0.561-0.249-1.128-0.489-1.699-0.719c-0.042,0.057-0.084,0.113-0.125,0.169c-0.885,1.204-1.488,1.941-2.671,1.941
					c-1.183,0-1.785-0.738-2.671-1.941c-0.875-1.189-1.963-2.67-4.111-2.67s-3.236,1.481-4.11,2.67
					c-0.885,1.204-1.488,1.941-2.671,1.941c-1.183,0-1.785-0.738-2.67-1.941c-0.875-1.189-1.963-2.67-4.11-2.67
					s-3.236,1.48-4.11,2.67c-0.885,1.204-1.488,1.941-2.671,1.941c-1.183,0-1.785-0.738-2.67-1.941
					c-0.517-0.703-1.111-1.506-1.952-2.047c-2.202,0.618-4.346,1.372-6.423,2.254c-0.802,1.077-1.404,1.734-2.515,1.734
					c-0.322,0-0.599-0.059-0.852-0.163c-0.606,0.309-1.204,0.631-1.797,0.962c0.669,0.569,1.509,0.988,2.649,0.988
					C713.049,99.651,714.138,98.171,715.012,96.981z"/>
				<path style="fill:#052257;" d="M701.451,107.881c0.885-1.204,1.487-1.941,2.67-1.941c1.183,0,1.786,0.738,2.671,1.941
					c0.875,1.189,1.963,2.67,4.11,2.67c2.147,0,3.236-1.481,4.11-2.67c0.885-1.204,1.487-1.941,2.67-1.941s1.785,0.738,2.67,1.941
					c0.875,1.189,1.963,2.67,4.11,2.67c2.148,0,3.236-1.481,4.111-2.67c0.885-1.204,1.487-1.941,2.67-1.941
					c1.183,0,1.785,0.738,2.67,1.941c0.875,1.189,1.963,2.67,4.111,2.67s3.236-1.481,4.111-2.67c0.885-1.204,1.487-1.941,2.67-1.941
					s1.785,0.738,2.67,1.941c0.875,1.189,1.963,2.67,4.111,2.67s3.236-1.48,4.111-2.67c0.885-1.204,1.488-1.941,2.671-1.941
					c1.183,0,1.785,0.738,2.67,1.941c0.875,1.189,1.963,2.67,4.11,2.67c2.148,0,3.237-1.481,4.111-2.67
					c0.566-0.77,1.018-1.346,1.58-1.664c-0.449-0.417-0.903-0.83-1.367-1.232c-0.686,0.526-1.199,1.22-1.653,1.837
					c-0.885,1.204-1.488,1.941-2.671,1.941c-1.183,0-1.785-0.738-2.67-1.941c-0.875-1.189-1.963-2.67-4.11-2.67
					c-2.148,0-3.237,1.481-4.111,2.67c-0.885,1.204-1.488,1.941-2.671,1.941c-1.183,0-1.785-0.738-2.671-1.941
					c-0.875-1.189-1.963-2.67-4.111-2.67s-3.236,1.481-4.11,2.67c-0.885,1.204-1.488,1.941-2.671,1.941
					c-1.183,0-1.785-0.738-2.67-1.941c-0.875-1.189-1.963-2.67-4.11-2.67s-3.236,1.48-4.11,2.67
					c-0.885,1.204-1.488,1.941-2.671,1.941c-1.183,0-1.785-0.738-2.67-1.941c-0.875-1.189-1.963-2.67-4.11-2.67
					c-2.147,0-3.236,1.481-4.11,2.67c-0.885,1.204-1.487,1.941-2.67,1.941c-1.183,0-1.785-0.738-2.67-1.941
					c-0.875-1.189-1.963-2.67-4.111-2.67s-3.236,1.481-4.11,2.67c-0.885,1.204-1.488,1.941-2.671,1.941
					c-0.614,0-1.07-0.202-1.492-0.561c-0.415,0.428-0.824,0.861-1.224,1.303c0.68,0.599,1.538,1.046,2.717,1.046
					C699.487,110.551,700.576,109.07,701.451,107.881z"/>
				<path style="fill:#052257;" d="M690.559,116.838c1.183,0,1.785,0.738,2.67,1.942c0.875,1.189,1.964,2.67,4.111,2.67
					s3.236-1.481,4.111-2.67c0.885-1.204,1.487-1.942,2.67-1.942c1.183,0,1.786,0.738,2.671,1.942c0.875,1.189,1.963,2.67,4.11,2.67
					c2.147,0,3.236-1.481,4.11-2.67c0.885-1.204,1.487-1.942,2.67-1.942s1.785,0.738,2.67,1.942c0.875,1.189,1.963,2.67,4.11,2.67
					c2.148,0,3.236-1.481,4.111-2.67c0.885-1.204,1.487-1.942,2.67-1.942c1.183,0,1.785,0.738,2.67,1.942
					c0.875,1.189,1.963,2.67,4.111,2.67s3.236-1.481,4.111-2.67c0.885-1.204,1.487-1.942,2.67-1.942s1.785,0.738,2.67,1.942
					c0.875,1.189,1.963,2.67,4.111,2.67s3.236-1.48,4.111-2.67c0.885-1.204,1.488-1.942,2.671-1.942c1.183,0,1.785,0.738,2.67,1.942
					c0.875,1.189,1.963,2.67,4.11,2.67c2.148,0,3.237-1.481,4.111-2.67c0.885-1.204,1.488-1.942,2.671-1.942
					c1.184,0,1.786,0.738,2.672,1.942c0.875,1.19,1.963,2.67,4.111,2.67c1.302,0,2.214-0.545,2.926-1.239
					c-0.296-0.552-0.601-1.098-0.915-1.638c-0.585,0.689-1.141,1.09-2.011,1.09c-1.184,0-1.786-0.738-2.672-1.941
					c-0.875-1.189-1.963-2.67-4.112-2.67c-2.148,0-3.237,1.481-4.111,2.67c-0.885,1.204-1.488,1.941-2.671,1.941
					c-1.183,0-1.785-0.738-2.67-1.941c-0.875-1.189-1.963-2.67-4.11-2.67c-2.148,0-3.237,1.481-4.111,2.67
					c-0.885,1.204-1.488,1.941-2.671,1.941c-1.183,0-1.785-0.738-2.671-1.941c-0.875-1.189-1.963-2.67-4.111-2.67
					s-3.236,1.481-4.11,2.67c-0.885,1.204-1.488,1.941-2.671,1.941c-1.183,0-1.785-0.738-2.67-1.941
					c-0.875-1.189-1.963-2.67-4.11-2.67s-3.236,1.48-4.11,2.67c-0.885,1.204-1.488,1.941-2.671,1.941
					c-1.183,0-1.785-0.738-2.67-1.941c-0.875-1.189-1.963-2.67-4.11-2.67c-2.147,0-3.236,1.481-4.11,2.67
					c-0.885,1.204-1.487,1.941-2.67,1.941c-1.183,0-1.785-0.738-2.67-1.941c-0.875-1.189-1.963-2.67-4.111-2.67
					s-3.236,1.481-4.11,2.67c-0.885,1.204-1.488,1.941-2.671,1.941c-1.183,0-1.786-0.738-2.671-1.941
					c-0.875-1.189-1.963-2.67-4.11-2.67c-0.117,0-0.23,0.006-0.341,0.015c-0.859,1.243-1.668,2.522-2.422,3.839
					c0.031-0.042,0.062-0.083,0.092-0.124C688.773,117.576,689.376,116.838,690.559,116.838z"/>
				<path style="fill:#052257;" d="M687.888,129.679c0.885-1.204,1.488-1.941,2.671-1.941c1.183,0,1.785,0.738,2.67,1.941
					c0.875,1.189,1.964,2.67,4.111,2.67s3.236-1.481,4.111-2.67c0.885-1.204,1.487-1.941,2.67-1.941
					c1.183,0,1.786,0.738,2.671,1.941c0.875,1.189,1.963,2.67,4.11,2.67c2.147,0,3.236-1.481,4.11-2.67
					c0.885-1.204,1.487-1.941,2.67-1.941s1.785,0.738,2.67,1.941c0.875,1.189,1.963,2.67,4.11,2.67c2.148,0,3.236-1.481,4.111-2.67
					c0.885-1.204,1.487-1.941,2.67-1.941c1.183,0,1.785,0.738,2.67,1.941c0.875,1.189,1.963,2.67,4.111,2.67s3.236-1.481,4.111-2.67
					c0.885-1.204,1.487-1.941,2.67-1.941s1.785,0.738,2.67,1.941c0.875,1.189,1.963,2.67,4.111,2.67s3.236-1.48,4.111-2.67
					c0.885-1.204,1.488-1.941,2.671-1.941c1.183,0,1.785,0.738,2.67,1.941c0.875,1.189,1.963,2.67,4.11,2.67
					c2.148,0,3.237-1.481,4.111-2.67c0.885-1.204,1.488-1.941,2.671-1.941c1.184,0,1.786,0.738,2.672,1.941
					c0.875,1.19,1.963,2.67,4.111,2.67c2.148,0,3.237-1.48,4.112-2.67c0.744-1.011,1.292-1.687,2.15-1.88
					c-0.199-0.568-0.405-1.132-0.622-1.691c-1.42,0.411-2.263,1.555-2.967,2.512c-0.885,1.204-1.488,1.941-2.672,1.941
					c-1.184,0-1.786-0.738-2.672-1.941c-0.875-1.189-1.963-2.67-4.112-2.67c-2.148,0-3.237,1.481-4.111,2.67
					c-0.885,1.204-1.488,1.941-2.671,1.941c-1.183,0-1.785-0.738-2.67-1.941c-0.875-1.189-1.963-2.67-4.11-2.67
					c-2.148,0-3.237,1.481-4.111,2.67c-0.885,1.204-1.488,1.941-2.671,1.941c-1.183,0-1.785-0.738-2.671-1.941
					c-0.875-1.189-1.963-2.67-4.111-2.67s-3.236,1.481-4.11,2.67c-0.885,1.204-1.488,1.941-2.671,1.941
					c-1.183,0-1.785-0.738-2.67-1.941c-0.875-1.189-1.963-2.67-4.11-2.67s-3.236,1.48-4.11,2.67
					c-0.885,1.204-1.488,1.941-2.671,1.941c-1.183,0-1.785-0.738-2.67-1.941c-0.875-1.189-1.963-2.67-4.11-2.67
					c-2.147,0-3.236,1.481-4.11,2.67c-0.885,1.204-1.487,1.941-2.67,1.941c-1.183,0-1.785-0.738-2.67-1.941
					c-0.875-1.189-1.963-2.67-4.111-2.67s-3.236,1.481-4.11,2.67c-0.885,1.204-1.488,1.941-2.671,1.941
					c-1.183,0-1.786-0.738-2.671-1.941c-0.875-1.189-1.963-2.67-4.11-2.67c-2.148,0-3.236,1.481-4.111,2.67
					c-0.885,1.204-1.487,1.941-2.67,1.941c-0.33,0-0.612-0.063-0.871-0.172c-0.168,0.574-0.331,1.151-0.48,1.734
					c0.399,0.141,0.845,0.226,1.351,0.226C685.925,132.349,687.013,130.868,687.888,129.679z"/>
				<path style="fill:#052257;" d="M687.888,140.578c0.885-1.204,1.488-1.941,2.671-1.941c1.183,0,1.785,0.738,2.67,1.941
					c0.875,1.189,1.964,2.67,4.111,2.67s3.236-1.481,4.111-2.67c0.885-1.204,1.487-1.941,2.67-1.941
					c1.183,0,1.786,0.738,2.671,1.941c0.875,1.189,1.963,2.67,4.11,2.67c2.147,0,3.236-1.481,4.11-2.67
					c0.885-1.204,1.487-1.941,2.67-1.941s1.785,0.738,2.67,1.941c0.875,1.189,1.963,2.67,4.11,2.67c2.148,0,3.236-1.481,4.111-2.67
					c0.885-1.204,1.487-1.941,2.67-1.941c1.183,0,1.785,0.738,2.67,1.941c0.875,1.189,1.963,2.67,4.111,2.67s3.236-1.481,4.111-2.67
					c0.885-1.204,1.487-1.941,2.67-1.941s1.785,0.738,2.67,1.941c0.875,1.189,1.963,2.67,4.111,2.67s3.236-1.48,4.111-2.67
					c0.885-1.204,1.488-1.941,2.671-1.941c1.183,0,1.785,0.738,2.67,1.941c0.875,1.189,1.963,2.67,4.11,2.67
					c2.148,0,3.237-1.481,4.111-2.67c0.885-1.204,1.488-1.941,2.671-1.941c1.184,0,1.786,0.738,2.672,1.941
					c0.875,1.19,1.963,2.67,4.111,2.67c2.148,0,3.237-1.48,4.112-2.67c0.885-1.204,1.488-1.941,2.672-1.941
					c0.956,0,1.534,0.486,2.186,1.305c-0.092-0.89-0.205-1.773-0.339-2.65c-0.517-0.27-1.12-0.442-1.847-0.442
					c-2.148,0-3.237,1.48-4.112,2.67c-0.885,1.204-1.488,1.941-2.672,1.941c-1.184,0-1.786-0.738-2.672-1.941
					c-0.875-1.189-1.963-2.67-4.112-2.67c-2.148,0-3.237,1.481-4.111,2.67c-0.885,1.204-1.488,1.941-2.671,1.941
					c-1.183,0-1.785-0.738-2.67-1.941c-0.875-1.189-1.963-2.67-4.11-2.67c-2.148,0-3.237,1.481-4.111,2.67
					c-0.885,1.204-1.488,1.941-2.671,1.941c-1.183,0-1.785-0.738-2.671-1.941c-0.875-1.189-1.963-2.67-4.111-2.67
					s-3.236,1.481-4.11,2.67c-0.885,1.204-1.488,1.941-2.671,1.941c-1.183,0-1.785-0.738-2.67-1.941
					c-0.875-1.189-1.963-2.67-4.11-2.67s-3.236,1.48-4.11,2.67c-0.885,1.204-1.488,1.941-2.671,1.941
					c-1.183,0-1.785-0.738-2.67-1.941c-0.875-1.189-1.963-2.67-4.11-2.67c-2.147,0-3.236,1.481-4.11,2.67
					c-0.885,1.204-1.487,1.941-2.67,1.941c-1.183,0-1.785-0.738-2.67-1.941c-0.875-1.189-1.963-2.67-4.111-2.67
					s-3.236,1.481-4.11,2.67c-0.885,1.204-1.488,1.941-2.671,1.941c-1.183,0-1.786-0.738-2.671-1.941
					c-0.875-1.189-1.963-2.67-4.11-2.67c-2.148,0-3.236,1.481-4.111,2.67c-0.885,1.204-1.487,1.941-2.67,1.941
					c-1.183,0-1.786-0.738-2.671-1.941c-0.008-0.011-0.016-0.022-0.025-0.033c-0.094,0.838-0.167,1.682-0.222,2.531
					c0.711,0.69,1.62,1.231,2.917,1.231C685.925,143.248,687.013,141.768,687.888,140.578z"/>
				<path style="fill:#052257;" d="M687.324,151.477c0.885-1.204,1.488-1.941,2.671-1.941c1.183,0,1.785,0.738,2.67,1.941
					c0.875,1.189,1.963,2.67,4.111,2.67c2.148,0,3.236-1.481,4.111-2.67c0.885-1.204,1.487-1.941,2.67-1.941
					c1.183,0,1.786,0.738,2.671,1.941c0.875,1.189,1.963,2.67,4.11,2.67c2.147,0,3.236-1.481,4.11-2.67
					c0.885-1.204,1.487-1.941,2.67-1.941c1.183,0,1.785,0.738,2.67,1.941c0.875,1.189,1.963,2.67,4.11,2.67
					c2.148,0,3.236-1.481,4.111-2.67c0.885-1.204,1.487-1.941,2.67-1.941c1.183,0,1.785,0.738,2.67,1.941
					c0.875,1.189,1.963,2.67,4.111,2.67s3.236-1.481,4.111-2.67c0.885-1.204,1.487-1.941,2.67-1.941c1.183,0,1.785,0.738,2.67,1.941
					c0.875,1.189,1.963,2.67,4.111,2.67s3.236-1.48,4.111-2.67c0.885-1.204,1.488-1.941,2.672-1.941c1.183,0,1.785,0.738,2.67,1.941
					c0.874,1.189,1.963,2.67,4.11,2.67c2.148,0,3.237-1.481,4.111-2.67c0.885-1.204,1.488-1.941,2.672-1.941
					c1.184,0,1.786,0.738,2.672,1.941c0.875,1.19,1.964,2.67,4.111,2.67c2.148,0,3.237-1.48,4.112-2.67
					c0.885-1.204,1.488-1.941,2.672-1.941c1.184,0,1.787,0.738,2.672,1.941c0.009,0.012,0.017,0.024,0.026,0.035
					c0.094-0.838,0.168-1.682,0.222-2.531c-0.711-0.691-1.621-1.233-2.92-1.233c-2.148,0-3.237,1.48-4.112,2.67
					c-0.885,1.204-1.488,1.941-2.672,1.941c-1.183,0-1.786-0.738-2.671-1.941c-0.875-1.189-1.963-2.67-4.112-2.67
					c-2.148,0-3.237,1.481-4.111,2.67c-0.885,1.204-1.488,1.941-2.671,1.941c-1.183,0-1.785-0.738-2.67-1.941
					c-0.875-1.189-1.963-2.67-4.11-2.67c-2.148,0-3.237,1.481-4.111,2.67c-0.885,1.204-1.488,1.941-2.671,1.941
					c-1.183,0-1.785-0.738-2.671-1.941c-0.875-1.189-1.963-2.67-4.11-2.67s-3.236,1.481-4.111,2.67
					c-0.885,1.204-1.488,1.941-2.671,1.941c-1.183,0-1.785-0.738-2.67-1.941c-0.875-1.189-1.963-2.67-4.111-2.67
					c-2.147,0-3.236,1.48-4.11,2.67c-0.885,1.204-1.488,1.941-2.671,1.941c-1.183,0-1.785-0.738-2.67-1.941
					c-0.875-1.189-1.963-2.67-4.111-2.67c-2.147,0-3.236,1.481-4.11,2.67c-0.885,1.204-1.487,1.941-2.67,1.941
					c-1.183,0-1.785-0.738-2.67-1.941c-0.875-1.189-1.963-2.67-4.111-2.67s-3.236,1.481-4.11,2.67
					c-0.885,1.204-1.488,1.941-2.671,1.941c-1.183,0-1.786-0.738-2.671-1.941c-0.874-1.189-1.963-2.67-4.11-2.67
					c-2.148,0-3.236,1.481-4.111,2.67c-0.885,1.204-1.487,1.941-2.67,1.941c-0.954,0-1.532-0.485-2.183-1.302
					c0.092,0.889,0.205,1.773,0.339,2.648c0.516,0.27,1.118,0.441,1.844,0.441C685.361,154.147,686.449,152.667,687.324,151.477z"/>
				<path style="fill:#052257;" d="M687.324,162.376c0.885-1.204,1.488-1.941,2.671-1.941c1.183,0,1.785,0.738,2.67,1.941
					c0.875,1.189,1.963,2.67,4.111,2.67c2.148,0,3.236-1.481,4.111-2.67c0.885-1.204,1.487-1.941,2.67-1.941
					c1.183,0,1.786,0.738,2.671,1.941c0.875,1.189,1.963,2.67,4.11,2.67c2.147,0,3.236-1.481,4.11-2.67
					c0.885-1.204,1.487-1.941,2.67-1.941c1.183,0,1.785,0.738,2.67,1.941c0.875,1.189,1.963,2.67,4.11,2.67
					c2.148,0,3.236-1.481,4.111-2.67c0.885-1.204,1.487-1.941,2.67-1.941c1.183,0,1.785,0.738,2.67,1.941
					c0.875,1.189,1.963,2.67,4.111,2.67s3.236-1.481,4.111-2.67c0.885-1.204,1.487-1.941,2.67-1.941c1.183,0,1.785,0.738,2.67,1.941
					c0.875,1.189,1.963,2.67,4.111,2.67s3.236-1.48,4.111-2.67c0.885-1.204,1.488-1.941,2.672-1.941c1.183,0,1.785,0.738,2.67,1.941
					c0.874,1.189,1.963,2.67,4.11,2.67c2.148,0,3.237-1.481,4.111-2.67c0.885-1.204,1.488-1.941,2.672-1.941
					c1.184,0,1.786,0.738,2.672,1.941c0.875,1.19,1.964,2.67,4.111,2.67c2.148,0,3.237-1.48,4.112-2.67
					c0.885-1.204,1.488-1.941,2.672-1.941c0.331,0,0.614,0.063,0.873,0.173c0.169-0.574,0.331-1.152,0.48-1.734
					c-0.4-0.142-0.846-0.226-1.354-0.226c-2.148,0-3.237,1.48-4.112,2.67c-0.885,1.204-1.488,1.941-2.672,1.941
					c-1.183,0-1.786-0.738-2.671-1.941c-0.875-1.189-1.963-2.67-4.112-2.67c-2.148,0-3.237,1.481-4.111,2.67
					c-0.885,1.204-1.488,1.941-2.671,1.941c-1.183,0-1.785-0.738-2.67-1.941c-0.875-1.189-1.963-2.67-4.11-2.67
					c-2.148,0-3.237,1.481-4.111,2.67c-0.885,1.204-1.488,1.941-2.671,1.941c-1.183,0-1.785-0.738-2.671-1.941
					c-0.875-1.189-1.963-2.67-4.11-2.67s-3.236,1.481-4.111,2.67c-0.885,1.204-1.488,1.941-2.671,1.941
					c-1.183,0-1.785-0.738-2.67-1.941c-0.875-1.189-1.963-2.67-4.111-2.67c-2.147,0-3.236,1.48-4.11,2.67
					c-0.885,1.204-1.488,1.941-2.671,1.941c-1.183,0-1.785-0.738-2.67-1.941c-0.875-1.189-1.963-2.67-4.111-2.67
					c-2.147,0-3.236,1.481-4.11,2.67c-0.885,1.204-1.487,1.941-2.67,1.941c-1.183,0-1.785-0.738-2.67-1.941
					c-0.875-1.189-1.963-2.67-4.111-2.67s-3.236,1.481-4.11,2.67c-0.885,1.204-1.488,1.941-2.671,1.941
					c-1.183,0-1.786-0.738-2.671-1.941c-0.874-1.189-1.963-2.67-4.11-2.67c-2.148,0-3.236,1.481-4.111,2.67
					c-0.743,1.01-1.29,1.685-2.145,1.879c0.198,0.568,0.405,1.132,0.622,1.691C685.779,164.474,686.621,163.332,687.324,162.376z"/>
				<path style="fill:#052257;" d="M689.995,171.334c1.183,0,1.785,0.738,2.67,1.941c0.875,1.189,1.963,2.67,4.111,2.67
					c2.148,0,3.236-1.481,4.111-2.67c0.885-1.204,1.487-1.941,2.67-1.941c1.183,0,1.786,0.738,2.671,1.941
					c0.875,1.189,1.963,2.67,4.11,2.67c2.147,0,3.236-1.481,4.11-2.67c0.885-1.204,1.487-1.941,2.67-1.941
					c1.183,0,1.785,0.738,2.67,1.941c0.875,1.189,1.963,2.67,4.11,2.67c2.148,0,3.236-1.481,4.111-2.67
					c0.885-1.204,1.487-1.941,2.67-1.941c1.183,0,1.785,0.738,2.67,1.941c0.875,1.189,1.963,2.67,4.111,2.67s3.236-1.481,4.111-2.67
					c0.885-1.204,1.487-1.941,2.67-1.941c1.183,0,1.785,0.738,2.67,1.941c0.875,1.189,1.963,2.67,4.111,2.67s3.236-1.48,4.111-2.67
					c0.885-1.204,1.488-1.941,2.672-1.941c1.183,0,1.785,0.738,2.67,1.941c0.874,1.189,1.963,2.67,4.11,2.67
					c2.148,0,3.237-1.481,4.111-2.67c0.885-1.204,1.488-1.941,2.672-1.941c1.184,0,1.786,0.738,2.672,1.941
					c0.875,1.19,1.964,2.67,4.111,2.67c0.119,0,0.234-0.006,0.347-0.015c0.864-1.251,1.678-2.538,2.435-3.862
					c-0.037,0.05-0.073,0.1-0.109,0.148c-0.885,1.204-1.488,1.941-2.672,1.941c-1.183,0-1.786-0.738-2.671-1.941
					c-0.875-1.189-1.963-2.67-4.112-2.67c-2.148,0-3.237,1.48-4.111,2.67c-0.885,1.204-1.488,1.941-2.671,1.941
					c-1.183,0-1.785-0.738-2.67-1.941c-0.875-1.189-1.963-2.67-4.11-2.67c-2.148,0-3.237,1.48-4.111,2.67
					c-0.885,1.204-1.488,1.941-2.671,1.941c-1.183,0-1.785-0.738-2.671-1.941c-0.875-1.189-1.963-2.67-4.11-2.67
					s-3.236,1.48-4.111,2.67c-0.885,1.204-1.488,1.941-2.671,1.941c-1.183,0-1.785-0.738-2.67-1.941
					c-0.875-1.189-1.963-2.67-4.111-2.67c-2.147,0-3.236,1.48-4.11,2.67c-0.885,1.204-1.488,1.941-2.671,1.941
					c-1.183,0-1.785-0.738-2.67-1.941c-0.875-1.189-1.963-2.67-4.111-2.67c-2.147,0-3.236,1.48-4.11,2.67
					c-0.885,1.204-1.487,1.941-2.67,1.941c-1.183,0-1.785-0.738-2.67-1.941c-0.875-1.189-1.963-2.67-4.111-2.67
					s-3.236,1.48-4.11,2.67c-0.885,1.204-1.488,1.941-2.671,1.941c-1.183,0-1.786-0.738-2.671-1.941
					c-0.874-1.189-1.963-2.67-4.11-2.67c-1.3,0-2.211,0.544-2.922,1.236c0.296,0.552,0.601,1.098,0.915,1.638
					C688.571,171.734,689.127,171.334,689.995,171.334z"/>
				<path style="fill:#052257;" d="M700.886,184.174c0.885-1.204,1.487-1.941,2.67-1.941c1.183,0,1.786,0.738,2.671,1.941
					c0.875,1.189,1.963,2.67,4.11,2.67c2.147,0,3.236-1.481,4.11-2.67c0.885-1.204,1.487-1.941,2.67-1.941
					c1.183,0,1.785,0.738,2.67,1.941c0.875,1.189,1.963,2.67,4.11,2.67c2.148,0,3.236-1.481,4.111-2.67
					c0.885-1.204,1.487-1.941,2.67-1.941c1.183,0,1.785,0.738,2.67,1.941c0.875,1.189,1.963,2.67,4.111,2.67s3.236-1.481,4.111-2.67
					c0.885-1.204,1.487-1.941,2.67-1.941c1.183,0,1.785,0.738,2.67,1.941c0.875,1.189,1.963,2.67,4.111,2.67s3.236-1.48,4.111-2.67
					c0.885-1.204,1.488-1.941,2.672-1.941c1.183,0,1.785,0.738,2.67,1.941c0.874,1.189,1.963,2.67,4.11,2.67
					c2.148,0,3.237-1.481,4.111-2.67c0.885-1.204,1.488-1.941,2.672-1.941c0.616,0,1.073,0.203,1.496,0.564
					c0.415-0.428,0.824-0.861,1.225-1.303c-0.681-0.6-1.54-1.049-2.721-1.049c-2.148,0-3.237,1.481-4.111,2.67
					c-0.885,1.204-1.488,1.941-2.671,1.941c-1.183,0-1.785-0.738-2.67-1.941c-0.875-1.189-1.963-2.67-4.11-2.67
					c-2.148,0-3.237,1.481-4.111,2.67c-0.885,1.204-1.488,1.941-2.671,1.941c-1.183,0-1.785-0.738-2.671-1.941
					c-0.875-1.189-1.963-2.67-4.11-2.67s-3.236,1.481-4.111,2.67c-0.885,1.204-1.488,1.941-2.671,1.941
					c-1.183,0-1.785-0.738-2.67-1.941c-0.875-1.189-1.963-2.67-4.111-2.67c-2.147,0-3.236,1.48-4.11,2.67
					c-0.885,1.204-1.488,1.941-2.671,1.941c-1.183,0-1.785-0.738-2.67-1.941c-0.875-1.189-1.963-2.67-4.111-2.67
					c-2.147,0-3.236,1.481-4.11,2.67c-0.885,1.204-1.487,1.941-2.67,1.941c-1.183,0-1.785-0.738-2.67-1.941
					c-0.875-1.189-1.963-2.67-4.111-2.67s-3.236,1.481-4.11,2.67c-0.565,0.768-1.015,1.343-1.574,1.661
					c0.449,0.417,0.903,0.829,1.366,1.231C699.922,185.482,700.434,184.79,700.886,184.174z"/>
				<path style="fill:#052257;" d="M717.118,193.132c1.183,0,1.785,0.738,2.67,1.941c0.875,1.189,1.963,2.67,4.11,2.67
					c2.148,0,3.236-1.481,4.111-2.67c0.885-1.204,1.487-1.941,2.67-1.941c1.183,0,1.785,0.738,2.67,1.941
					c0.875,1.189,1.963,2.67,4.111,2.67s3.236-1.481,4.111-2.67c0.885-1.204,1.487-1.941,2.67-1.941c1.183,0,1.785,0.738,2.67,1.941
					c0.518,0.704,1.113,1.508,1.956,2.049c2.199-0.617,4.341-1.369,6.416-2.25c0.805-1.081,1.407-1.741,2.521-1.741
					c0.324,0,0.602,0.06,0.856,0.165c0.606-0.309,1.204-0.631,1.796-0.962c-0.67-0.571-1.511-0.991-2.652-0.991
					c-2.148,0-3.237,1.481-4.111,2.67c-0.885,1.204-1.488,1.941-2.671,1.941c-1.183,0-1.785-0.738-2.671-1.941
					c-0.875-1.189-1.963-2.67-4.11-2.67s-3.236,1.481-4.111,2.67c-0.885,1.204-1.488,1.941-2.671,1.941
					c-1.183,0-1.785-0.738-2.67-1.941c-0.875-1.189-1.963-2.67-4.111-2.67c-2.147,0-3.236,1.48-4.11,2.67
					c-0.885,1.204-1.488,1.941-2.671,1.941c-1.183,0-1.785-0.738-2.67-1.941c-0.875-1.189-1.963-2.67-4.111-2.67
					c-2.147,0-3.236,1.481-4.11,2.67c-0.133,0.181-0.258,0.347-0.381,0.506c0.561,0.249,1.128,0.489,1.699,0.719
					c0.041-0.056,0.082-0.111,0.122-0.166C715.332,193.87,715.935,193.132,717.118,193.132z"/>
			</g>
			<g>
				<path style="opacity:0.25;fill:#04092C;" d="M426.088-46.895c0,0,112.494,205.49,362.982,190.49V-39L426.088-46.895z"/>
				<path style="opacity:0.25;fill:#04092C;" d="M-8.89,127.097c0,0,335.622,128.931,261.39,465.593H-8.89V127.097z"/>
			</g>
			<path style="fill:none;stroke:#A8771E;stroke-width:2;stroke-miterlimit:10;" d="M-44.144,60.524
				c0,0,335.622,128.931,261.39,465.593"/>
			<path style="fill:none;stroke:#A8771E;stroke-width:2;stroke-miterlimit:10;" d="M489.558-16.657
				c0,0,112.494,205.49,362.982,190.491"/>
			<g>
				<path style="fill:#FCFDFF;" d="M-14,245.117c0,0,398-69.888,533-257.117H-14V245.117z"/>
				<path style="fill:#EAECF2;" d="M455-12c0,0-175,173-469,210v-88.222c0,0,246-1.778,423-121.778H455z"/>
				<path style="fill:#A8771E;" d="M450.053-31.879c0,0-175,173-469,210V89.899c0,0,246-1.778,423-121.778H450.053z"/>
				<path style="fill:#04092C;" d="M-14,53c0,0,158,8,278-65H-14V53z"/>
			</g>
			<g>
				<path style="fill:#FCFDFF;" d="M764,254.883c0,0-398,69.889-533,257.117h533V254.883z"/>
				<path style="fill:#EAECF2;" d="M295,512c0,0,175-173,469-210v88.222c0,0-246,1.778-423,121.778H295z"/>
				<path style="fill:#A8771E;" d="M299.947,531.879c0,0,175-173,469-210v88.222c0,0-246,1.778-423,121.778H299.947z"/>
				<path style="fill:#04092C;" d="M764,447c0,0-158-8-278,65h278V447z"/>
			</g>
			<g>
				<path style="fill:#052257;" d="M328.777,178.785c1.402-1.908,2.357-3.078,4.232-3.078s2.83,1.169,4.233,3.078
					c1.387,1.886,3.112,4.233,6.516,4.233c3.405,0,5.13-2.347,6.517-4.233c1.403-1.908,2.358-3.078,4.233-3.078
					c1.875,0,2.83,1.169,4.233,3.078c1.386,1.886,3.112,4.233,6.516,4.233c3.404,0,5.13-2.347,6.517-4.233
					c1.403-1.908,2.358-3.078,4.233-3.078c1.876,0,2.83,1.169,4.233,3.078c1.387,1.886,3.113,4.233,6.517,4.233
					s5.13-2.347,6.517-4.233c0.212-0.288,0.412-0.554,0.609-0.807c-0.89-0.395-1.788-0.775-2.693-1.14
					c-0.066,0.09-0.133,0.18-0.198,0.268c-1.404,1.908-2.359,3.078-4.234,3.078c-1.876,0-2.83-1.17-4.234-3.078
					c-1.386-1.886-3.112-4.233-6.516-4.233c-3.404,0-5.13,2.347-6.516,4.233c-1.404,1.908-2.358,3.078-4.234,3.078
					c-1.875,0-2.83-1.17-4.233-3.078c-1.387-1.886-3.112-4.233-6.516-4.233s-5.13,2.347-6.516,4.233
					c-1.404,1.908-2.359,3.078-4.234,3.078c-1.875,0-2.83-1.17-4.233-3.078c-0.82-1.115-1.761-2.387-3.095-3.245
					c-3.49,0.98-6.89,2.175-10.183,3.573c-1.272,1.708-2.225,2.749-3.987,2.749c-0.51,0-0.949-0.094-1.351-0.258
					c-0.961,0.49-1.909,1.001-2.849,1.525c1.061,0.903,2.392,1.567,4.199,1.567C325.665,183.018,327.391,180.671,328.777,178.785z"
					/>
				<path style="fill:#052257;" d="M307.278,196.064c1.403-1.908,2.358-3.078,4.233-3.078c1.876,0,2.831,1.169,4.234,3.078
					c1.387,1.886,3.112,4.233,6.516,4.233c3.404,0,5.13-2.347,6.516-4.233c1.402-1.908,2.357-3.078,4.232-3.078
					s2.83,1.169,4.233,3.078c1.387,1.886,3.112,4.233,6.516,4.233c3.405,0,5.13-2.347,6.517-4.233
					c1.403-1.908,2.358-3.078,4.233-3.078c1.875,0,2.83,1.169,4.233,3.078c1.386,1.886,3.112,4.233,6.516,4.233
					c3.404,0,5.13-2.347,6.517-4.233c1.403-1.908,2.358-3.078,4.233-3.078c1.876,0,2.83,1.169,4.233,3.078
					c1.387,1.886,3.113,4.233,6.517,4.233s5.13-2.347,6.517-4.233c1.404-1.908,2.359-3.078,4.235-3.078
					c1.875,0,2.83,1.169,4.232,3.078c1.386,1.886,3.112,4.233,6.516,4.233c3.405,0,5.131-2.347,6.518-4.233
					c0.898-1.221,1.615-2.134,2.504-2.638c-0.712-0.662-1.432-1.315-2.167-1.953c-1.088,0.834-1.901,1.934-2.62,2.911
					c-1.404,1.908-2.359,3.078-4.235,3.078c-1.875,0-2.83-1.169-4.233-3.078c-1.386-1.886-3.112-4.233-6.516-4.233
					c-3.405,0-5.131,2.347-6.517,4.233c-1.404,1.908-2.359,3.078-4.234,3.078c-1.876,0-2.83-1.169-4.234-3.078
					c-1.386-1.886-3.112-4.233-6.516-4.233c-3.404,0-5.13,2.347-6.516,4.233c-1.404,1.908-2.358,3.078-4.234,3.078
					c-1.875,0-2.83-1.169-4.233-3.078c-1.387-1.886-3.112-4.233-6.516-4.233s-5.13,2.347-6.516,4.233
					c-1.404,1.908-2.359,3.078-4.234,3.078c-1.875,0-2.83-1.169-4.233-3.078c-1.386-1.886-3.112-4.233-6.516-4.233
					c-3.404,0-5.129,2.347-6.516,4.233c-1.402,1.908-2.357,3.078-4.232,3.078c-1.875,0-2.83-1.169-4.233-3.078
					c-1.387-1.886-3.113-4.233-6.517-4.233s-5.13,2.347-6.516,4.233c-1.404,1.908-2.358,3.078-4.234,3.078
					c-0.973,0-1.697-0.32-2.366-0.889c-0.657,0.679-1.306,1.365-1.941,2.066c1.078,0.949,2.439,1.657,4.307,1.657
					C304.165,200.296,305.891,197.949,307.278,196.064z"/>
				<path style="fill:#052257;" d="M290.011,210.264c1.875,0,2.83,1.169,4.233,3.078c1.387,1.886,3.113,4.233,6.517,4.233
					c3.404,0,5.13-2.347,6.517-4.233c1.403-1.908,2.358-3.078,4.233-3.078c1.876,0,2.831,1.169,4.234,3.078
					c1.387,1.886,3.112,4.233,6.516,4.233c3.404,0,5.13-2.347,6.516-4.233c1.402-1.908,2.357-3.078,4.232-3.078
					s2.83,1.169,4.233,3.078c1.387,1.886,3.112,4.233,6.516,4.233c3.405,0,5.13-2.347,6.517-4.233
					c1.403-1.908,2.358-3.078,4.233-3.078c1.875,0,2.83,1.169,4.233,3.078c1.386,1.886,3.112,4.233,6.516,4.233
					c3.404,0,5.13-2.347,6.517-4.233c1.403-1.908,2.358-3.078,4.233-3.078c1.876,0,2.83,1.169,4.233,3.078
					c1.387,1.886,3.113,4.233,6.517,4.233s5.13-2.347,6.517-4.233c1.404-1.908,2.359-3.078,4.235-3.078
					c1.875,0,2.83,1.169,4.232,3.078c1.386,1.886,3.112,4.233,6.516,4.233c3.405,0,5.131-2.347,6.518-4.233
					c1.404-1.908,2.359-3.078,4.235-3.078c1.876,0,2.832,1.169,4.236,3.078c1.387,1.886,3.113,4.233,6.518,4.233
					c2.065,0,3.51-0.864,4.639-1.964c-0.469-0.875-0.952-1.741-1.451-2.597c-0.927,1.092-1.809,1.727-3.188,1.727
					c-1.876,0-2.832-1.169-4.235-3.078c-1.387-1.886-3.113-4.233-6.518-4.233c-3.405,0-5.131,2.347-6.517,4.233
					c-1.404,1.908-2.359,3.078-4.235,3.078c-1.875,0-2.83-1.169-4.233-3.078c-1.386-1.886-3.112-4.233-6.516-4.233
					c-3.405,0-5.131,2.347-6.517,4.233c-1.404,1.908-2.359,3.078-4.234,3.078c-1.876,0-2.83-1.169-4.234-3.078
					c-1.386-1.886-3.112-4.233-6.516-4.233c-3.404,0-5.13,2.347-6.516,4.233c-1.404,1.908-2.358,3.078-4.234,3.078
					c-1.875,0-2.83-1.169-4.233-3.078c-1.387-1.886-3.112-4.233-6.516-4.233s-5.13,2.347-6.516,4.233
					c-1.404,1.908-2.359,3.078-4.234,3.078c-1.875,0-2.83-1.169-4.233-3.078c-1.386-1.886-3.112-4.233-6.516-4.233
					c-3.404,0-5.129,2.347-6.516,4.233c-1.402,1.908-2.357,3.078-4.232,3.078c-1.875,0-2.83-1.169-4.233-3.078
					c-1.387-1.886-3.113-4.233-6.517-4.233s-5.13,2.347-6.516,4.233c-1.404,1.908-2.358,3.078-4.234,3.078
					c-1.876,0-2.831-1.169-4.234-3.078c-1.386-1.886-3.112-4.233-6.516-4.233c-0.186,0-0.365,0.01-0.541,0.023
					c-1.361,1.971-2.645,3.999-3.839,6.085c0.048-0.066,0.098-0.132,0.145-0.197C287.18,211.434,288.136,210.264,290.011,210.264z"
					/>
				<path style="fill:#052257;" d="M285.777,230.62c1.404-1.908,2.359-3.078,4.234-3.078c1.875,0,2.83,1.169,4.233,3.078
					c1.387,1.886,3.113,4.233,6.517,4.233c3.404,0,5.13-2.347,6.517-4.233c1.403-1.908,2.358-3.078,4.233-3.078
					c1.876,0,2.831,1.169,4.234,3.078c1.387,1.886,3.112,4.233,6.516,4.233c3.404,0,5.13-2.347,6.516-4.233
					c1.402-1.908,2.357-3.078,4.232-3.078s2.83,1.169,4.233,3.078c1.387,1.886,3.112,4.233,6.516,4.233
					c3.405,0,5.13-2.347,6.517-4.233c1.403-1.908,2.358-3.078,4.233-3.078c1.875,0,2.83,1.169,4.233,3.078
					c1.386,1.886,3.112,4.233,6.516,4.233c3.404,0,5.13-2.347,6.517-4.233c1.403-1.908,2.358-3.078,4.233-3.078
					c1.876,0,2.83,1.169,4.233,3.078c1.387,1.886,3.113,4.233,6.517,4.233s5.13-2.347,6.517-4.233
					c1.404-1.908,2.359-3.078,4.235-3.078c1.875,0,2.83,1.169,4.232,3.078c1.386,1.886,3.112,4.233,6.516,4.233
					c3.405,0,5.131-2.347,6.518-4.233c1.404-1.908,2.359-3.078,4.235-3.078c1.876,0,2.832,1.169,4.236,3.078
					c1.387,1.886,3.113,4.233,6.518,4.233c3.405,0,5.132-2.347,6.518-4.233c1.179-1.603,2.049-2.675,3.408-2.98
					c-0.315-0.9-0.643-1.794-0.987-2.681c-2.251,0.652-3.588,2.465-4.704,3.982c-1.404,1.908-2.359,3.078-4.236,3.078
					c-1.876,0-2.832-1.169-4.235-3.078c-1.387-1.886-3.113-4.233-6.518-4.233c-3.405,0-5.131,2.347-6.517,4.233
					c-1.404,1.908-2.359,3.078-4.235,3.078c-1.875,0-2.83-1.169-4.233-3.078c-1.386-1.886-3.112-4.233-6.516-4.233
					c-3.405,0-5.131,2.347-6.517,4.233c-1.404,1.908-2.359,3.078-4.234,3.078c-1.876,0-2.83-1.169-4.234-3.078
					c-1.386-1.886-3.112-4.233-6.516-4.233c-3.404,0-5.13,2.347-6.516,4.233c-1.404,1.908-2.358,3.078-4.234,3.078
					c-1.875,0-2.83-1.169-4.233-3.078c-1.387-1.886-3.112-4.233-6.516-4.233s-5.13,2.347-6.516,4.233
					c-1.404,1.908-2.359,3.078-4.234,3.078c-1.875,0-2.83-1.169-4.233-3.078c-1.386-1.886-3.112-4.233-6.516-4.233
					c-3.404,0-5.129,2.347-6.516,4.233c-1.402,1.908-2.357,3.078-4.232,3.078c-1.875,0-2.83-1.169-4.233-3.078
					c-1.387-1.886-3.113-4.233-6.517-4.233s-5.13,2.347-6.516,4.233c-1.404,1.908-2.358,3.078-4.234,3.078
					c-1.876,0-2.831-1.169-4.234-3.078c-1.386-1.886-3.112-4.233-6.516-4.233c-3.405,0-5.131,2.347-6.517,4.233
					c-1.403,1.908-2.358,3.078-4.233,3.078c-0.523,0-0.97-0.1-1.38-0.272c-0.267,0.911-0.524,1.825-0.761,2.748
					c0.633,0.224,1.339,0.358,2.141,0.358C282.665,234.853,284.391,232.506,285.777,230.62z"/>
				<path style="fill:#052257;" d="M285.777,247.899c1.404-1.908,2.359-3.078,4.234-3.078c1.875,0,2.83,1.17,4.233,3.078
					c1.387,1.886,3.113,4.233,6.517,4.233c3.404,0,5.13-2.347,6.517-4.233c1.403-1.908,2.358-3.078,4.233-3.078
					c1.876,0,2.831,1.17,4.234,3.078c1.387,1.886,3.112,4.233,6.516,4.233c3.404,0,5.13-2.347,6.516-4.233
					c1.402-1.908,2.357-3.078,4.232-3.078s2.83,1.17,4.233,3.078c1.387,1.886,3.112,4.233,6.516,4.233
					c3.405,0,5.13-2.347,6.517-4.233c1.403-1.908,2.358-3.078,4.233-3.078c1.875,0,2.83,1.17,4.233,3.078
					c1.386,1.886,3.112,4.233,6.516,4.233c3.404,0,5.13-2.347,6.517-4.233c1.403-1.908,2.358-3.078,4.233-3.078
					c1.876,0,2.83,1.17,4.233,3.078c1.387,1.886,3.113,4.233,6.517,4.233s5.13-2.347,6.517-4.233
					c1.404-1.908,2.359-3.078,4.235-3.078c1.875,0,2.83,1.17,4.232,3.078c1.386,1.886,3.112,4.233,6.516,4.233
					c3.405,0,5.131-2.347,6.518-4.233c1.404-1.908,2.359-3.078,4.235-3.078c1.876,0,2.832,1.17,4.236,3.078
					c1.387,1.886,3.113,4.233,6.518,4.233c3.405,0,5.132-2.347,6.518-4.233c1.404-1.908,2.359-3.078,4.236-3.078
					c1.515,0,2.432,0.771,3.466,2.068c-0.145-1.411-0.324-2.811-0.538-4.201c-0.82-0.428-1.776-0.701-2.928-0.701
					c-3.405,0-5.132,2.347-6.519,4.233c-1.404,1.908-2.359,3.078-4.236,3.078c-1.876,0-2.832-1.169-4.235-3.078
					c-1.387-1.886-3.113-4.233-6.518-4.233c-3.405,0-5.131,2.347-6.517,4.233c-1.404,1.908-2.359,3.078-4.235,3.078
					c-1.875,0-2.83-1.169-4.233-3.078c-1.386-1.886-3.112-4.233-6.516-4.233c-3.405,0-5.131,2.347-6.517,4.233
					c-1.404,1.908-2.359,3.078-4.234,3.078c-1.876,0-2.83-1.169-4.234-3.078c-1.386-1.886-3.112-4.233-6.516-4.233
					c-3.404,0-5.13,2.347-6.516,4.233c-1.404,1.908-2.358,3.078-4.234,3.078c-1.875,0-2.83-1.169-4.233-3.078
					c-1.387-1.886-3.112-4.233-6.516-4.233s-5.13,2.347-6.516,4.233c-1.404,1.908-2.359,3.078-4.234,3.078
					c-1.875,0-2.83-1.169-4.233-3.078c-1.386-1.886-3.112-4.233-6.516-4.233c-3.404,0-5.129,2.347-6.516,4.233
					c-1.402,1.908-2.357,3.078-4.232,3.078c-1.875,0-2.83-1.169-4.233-3.078c-1.387-1.886-3.113-4.233-6.517-4.233
					s-5.13,2.347-6.516,4.233c-1.404,1.908-2.358,3.078-4.234,3.078c-1.876,0-2.831-1.169-4.234-3.078
					c-1.386-1.886-3.112-4.233-6.516-4.233c-3.405,0-5.131,2.347-6.517,4.233c-1.403,1.908-2.358,3.078-4.233,3.078
					c-1.876,0-2.831-1.169-4.234-3.078c-0.013-0.017-0.026-0.035-0.039-0.053c-0.148,1.328-0.266,2.666-0.352,4.012
					c1.127,1.094,2.568,1.952,4.625,1.952C282.665,252.132,284.391,249.785,285.777,247.899z"/>
				<path style="fill:#052257;" d="M284.883,265.177c1.404-1.908,2.359-3.078,4.234-3.078c1.875,0,2.83,1.169,4.233,3.078
					c1.387,1.886,3.113,4.233,6.517,4.233s5.13-2.347,6.517-4.233c1.403-1.908,2.358-3.078,4.233-3.078
					c1.876,0,2.831,1.169,4.234,3.078c1.386,1.886,3.111,4.233,6.516,4.233c3.404,0,5.129-2.347,6.516-4.233
					c1.402-1.908,2.357-3.078,4.232-3.078c1.875,0,2.83,1.169,4.233,3.078c1.387,1.886,3.112,4.233,6.516,4.233
					c3.405,0,5.13-2.347,6.517-4.233c1.403-1.908,2.358-3.078,4.233-3.078c1.875,0,2.83,1.169,4.233,3.078
					c1.386,1.886,3.112,4.233,6.516,4.233c3.404,0,5.13-2.347,6.517-4.233c1.403-1.908,2.358-3.078,4.233-3.078
					c1.876,0,2.83,1.169,4.233,3.078c1.387,1.886,3.113,4.233,6.517,4.233c3.404,0,5.13-2.347,6.517-4.233
					c1.404-1.908,2.359-3.078,4.235-3.078c1.875,0,2.83,1.169,4.232,3.078c1.386,1.886,3.112,4.233,6.516,4.233
					c3.405,0,5.131-2.347,6.517-4.233c1.404-1.908,2.359-3.078,4.235-3.078c1.876,0,2.832,1.169,4.236,3.078
					c1.387,1.886,3.113,4.233,6.517,4.233c3.405,0,5.132-2.347,6.519-4.233c1.404-1.908,2.359-3.078,4.236-3.078
					s2.833,1.169,4.236,3.078c0.014,0.018,0.028,0.038,0.041,0.056c0.148-1.328,0.266-2.666,0.352-4.012
					c-1.127-1.095-2.57-1.955-4.629-1.955c-3.405,0-5.132,2.347-6.519,4.233c-1.404,1.908-2.359,3.078-4.236,3.078
					c-1.876,0-2.831-1.169-4.235-3.078c-1.387-1.886-3.113-4.233-6.518-4.233c-3.405,0-5.131,2.347-6.517,4.233
					c-1.404,1.908-2.359,3.078-4.235,3.078c-1.875,0-2.83-1.169-4.233-3.078c-1.386-1.886-3.112-4.233-6.516-4.233
					c-3.405,0-5.131,2.347-6.517,4.233c-1.404,1.908-2.359,3.078-4.234,3.078c-1.876,0-2.83-1.169-4.234-3.078
					c-1.386-1.886-3.112-4.233-6.516-4.233c-3.404,0-5.13,2.347-6.516,4.233c-1.404,1.908-2.358,3.078-4.234,3.078
					c-1.875,0-2.83-1.169-4.233-3.078c-1.387-1.886-3.112-4.233-6.516-4.233c-3.404,0-5.13,2.347-6.516,4.233
					c-1.404,1.908-2.359,3.078-4.234,3.078c-1.875,0-2.83-1.169-4.233-3.078c-1.386-1.886-3.112-4.233-6.516-4.233
					c-3.404,0-5.129,2.347-6.516,4.233c-1.402,1.908-2.357,3.078-4.232,3.078s-2.83-1.169-4.233-3.078
					c-1.387-1.886-3.113-4.233-6.517-4.233c-3.404,0-5.13,2.347-6.516,4.233c-1.404,1.908-2.358,3.078-4.234,3.078
					c-1.876,0-2.831-1.169-4.234-3.078c-1.386-1.886-3.112-4.233-6.516-4.233c-3.405,0-5.131,2.347-6.518,4.233
					c-1.403,1.908-2.358,3.078-4.233,3.078c-1.512,0-2.428-0.77-3.46-2.064c0.145,1.41,0.324,2.81,0.538,4.199
					c0.818,0.427,1.773,0.699,2.923,0.699C281.771,269.41,283.496,267.063,284.883,265.177z"/>
				<path style="fill:#052257;" d="M284.883,282.456c1.404-1.908,2.359-3.078,4.234-3.078c1.875,0,2.83,1.17,4.233,3.078
					c1.387,1.886,3.113,4.233,6.517,4.233s5.13-2.347,6.517-4.233c1.403-1.908,2.358-3.078,4.233-3.078
					c1.876,0,2.831,1.17,4.234,3.078c1.386,1.886,3.111,4.233,6.516,4.233c3.404,0,5.129-2.347,6.516-4.233
					c1.402-1.908,2.357-3.078,4.232-3.078c1.875,0,2.83,1.17,4.233,3.078c1.387,1.886,3.112,4.233,6.516,4.233
					c3.405,0,5.13-2.347,6.517-4.233c1.403-1.908,2.358-3.078,4.233-3.078c1.875,0,2.83,1.17,4.233,3.078
					c1.386,1.886,3.112,4.233,6.516,4.233c3.404,0,5.13-2.347,6.517-4.233c1.403-1.908,2.358-3.078,4.233-3.078
					c1.876,0,2.83,1.17,4.233,3.078c1.387,1.886,3.113,4.233,6.517,4.233c3.404,0,5.13-2.347,6.517-4.233
					c1.404-1.908,2.359-3.078,4.235-3.078c1.875,0,2.83,1.17,4.232,3.078c1.386,1.886,3.112,4.233,6.516,4.233
					c3.405,0,5.131-2.347,6.517-4.233c1.404-1.908,2.359-3.078,4.235-3.078c1.876,0,2.832,1.17,4.236,3.078
					c1.387,1.886,3.113,4.233,6.517,4.233c3.405,0,5.132-2.347,6.519-4.233c1.404-1.908,2.359-3.078,4.236-3.078
					c0.525,0,0.974,0.1,1.385,0.274c0.267-0.911,0.524-1.826,0.761-2.749c-0.634-0.225-1.342-0.359-2.146-0.359
					c-3.405,0-5.132,2.347-6.519,4.233c-1.404,1.908-2.359,3.078-4.236,3.078c-1.876,0-2.831-1.169-4.235-3.078
					c-1.387-1.886-3.113-4.233-6.518-4.233c-3.405,0-5.131,2.347-6.517,4.233c-1.404,1.908-2.359,3.078-4.235,3.078
					c-1.875,0-2.83-1.169-4.233-3.078c-1.386-1.886-3.112-4.233-6.516-4.233c-3.405,0-5.131,2.347-6.517,4.233
					c-1.404,1.908-2.359,3.078-4.234,3.078c-1.876,0-2.83-1.169-4.234-3.078c-1.386-1.886-3.112-4.233-6.516-4.233
					c-3.404,0-5.13,2.347-6.516,4.233c-1.404,1.908-2.358,3.078-4.234,3.078c-1.875,0-2.83-1.169-4.233-3.078
					c-1.387-1.886-3.112-4.233-6.516-4.233c-3.404,0-5.13,2.347-6.516,4.233c-1.404,1.908-2.359,3.078-4.234,3.078
					c-1.875,0-2.83-1.169-4.233-3.078c-1.386-1.886-3.112-4.233-6.516-4.233c-3.404,0-5.129,2.347-6.516,4.233
					c-1.402,1.908-2.357,3.078-4.232,3.078s-2.83-1.169-4.233-3.078c-1.387-1.886-3.113-4.233-6.517-4.233
					c-3.404,0-5.13,2.347-6.516,4.233c-1.404,1.908-2.358,3.078-4.234,3.078c-1.876,0-2.831-1.169-4.234-3.078
					c-1.386-1.886-3.112-4.233-6.516-4.233c-3.405,0-5.131,2.347-6.518,4.233c-1.177,1.601-2.045,2.672-3.4,2.978
					c0.315,0.9,0.643,1.794,0.987,2.681C282.433,285.782,283.768,283.971,284.883,282.456z"/>
				<path style="fill:#052257;" d="M289.117,296.656c1.875,0,2.83,1.169,4.233,3.078c1.387,1.886,3.113,4.233,6.517,4.233
					s5.13-2.347,6.517-4.233c1.403-1.908,2.358-3.078,4.233-3.078c1.876,0,2.831,1.169,4.234,3.078
					c1.386,1.886,3.111,4.233,6.516,4.233c3.404,0,5.129-2.347,6.516-4.233c1.402-1.908,2.357-3.078,4.232-3.078
					c1.875,0,2.83,1.169,4.233,3.078c1.387,1.886,3.112,4.233,6.516,4.233c3.405,0,5.13-2.347,6.517-4.233
					c1.403-1.908,2.358-3.078,4.233-3.078c1.875,0,2.83,1.169,4.233,3.078c1.386,1.886,3.112,4.233,6.516,4.233
					c3.404,0,5.13-2.347,6.517-4.233c1.403-1.908,2.358-3.078,4.233-3.078c1.876,0,2.83,1.169,4.233,3.078
					c1.387,1.886,3.113,4.233,6.517,4.233c3.404,0,5.13-2.347,6.517-4.233c1.404-1.908,2.359-3.078,4.235-3.078
					c1.875,0,2.83,1.169,4.232,3.078c1.386,1.886,3.112,4.233,6.516,4.233c3.405,0,5.131-2.347,6.517-4.233
					c1.404-1.908,2.359-3.078,4.235-3.078c1.876,0,2.832,1.169,4.236,3.078c1.387,1.886,3.113,4.233,6.517,4.233
					c0.189,0,0.371-0.01,0.55-0.024c1.369-1.982,2.66-4.023,3.86-6.123c-0.058,0.079-0.117,0.158-0.174,0.235
					c-1.404,1.908-2.359,3.078-4.236,3.078c-1.876,0-2.831-1.169-4.235-3.078c-1.387-1.886-3.113-4.233-6.518-4.233
					c-3.405,0-5.131,2.347-6.517,4.233c-1.404,1.908-2.359,3.078-4.235,3.078c-1.875,0-2.83-1.169-4.233-3.078
					c-1.386-1.886-3.112-4.233-6.516-4.233c-3.405,0-5.131,2.347-6.517,4.233c-1.404,1.908-2.359,3.078-4.234,3.078
					c-1.876,0-2.83-1.169-4.234-3.078c-1.386-1.886-3.112-4.233-6.516-4.233c-3.404,0-5.13,2.347-6.516,4.233
					c-1.404,1.908-2.358,3.078-4.234,3.078c-1.875,0-2.83-1.169-4.233-3.078c-1.387-1.886-3.112-4.233-6.516-4.233
					c-3.404,0-5.13,2.347-6.516,4.233c-1.404,1.908-2.359,3.078-4.234,3.078c-1.875,0-2.83-1.169-4.233-3.078
					c-1.386-1.886-3.112-4.233-6.516-4.233c-3.404,0-5.129,2.347-6.516,4.233c-1.402,1.908-2.357,3.078-4.232,3.078
					s-2.83-1.169-4.233-3.078c-1.387-1.886-3.113-4.233-6.517-4.233c-3.404,0-5.13,2.347-6.516,4.233
					c-1.404,1.908-2.358,3.078-4.234,3.078c-1.876,0-2.831-1.169-4.234-3.078c-1.386-1.886-3.112-4.233-6.516-4.233
					c-2.061,0-3.505,0.862-4.633,1.959c0.469,0.875,0.952,1.741,1.45,2.597C286.86,297.29,287.741,296.656,289.117,296.656z"/>
				<path style="fill:#052257;" d="M306.384,317.013c1.403-1.908,2.358-3.078,4.233-3.078c1.876,0,2.831,1.169,4.234,3.078
					c1.386,1.886,3.111,4.233,6.516,4.233c3.404,0,5.129-2.347,6.516-4.233c1.402-1.908,2.357-3.078,4.232-3.078
					c1.875,0,2.83,1.169,4.233,3.078c1.387,1.886,3.112,4.233,6.516,4.233c3.405,0,5.13-2.347,6.517-4.233
					c1.403-1.908,2.358-3.078,4.233-3.078c1.875,0,2.83,1.169,4.233,3.078c1.386,1.886,3.112,4.233,6.516,4.233
					c3.404,0,5.13-2.347,6.517-4.233c1.403-1.908,2.358-3.078,4.233-3.078c1.876,0,2.83,1.169,4.233,3.078
					c1.387,1.886,3.113,4.233,6.517,4.233c3.404,0,5.13-2.347,6.517-4.233c1.404-1.908,2.359-3.078,4.235-3.078
					c1.875,0,2.83,1.169,4.232,3.078c1.386,1.886,3.112,4.233,6.516,4.233c3.405,0,5.131-2.347,6.517-4.233
					c1.404-1.908,2.359-3.078,4.235-3.078c0.976,0,1.702,0.322,2.372,0.895c0.658-0.679,1.307-1.365,1.942-2.066
					c-1.079-0.952-2.442-1.663-4.314-1.663c-3.405,0-5.131,2.347-6.517,4.233c-1.404,1.908-2.359,3.078-4.235,3.078
					c-1.875,0-2.83-1.17-4.233-3.078c-1.386-1.886-3.112-4.233-6.516-4.233c-3.405,0-5.131,2.347-6.517,4.233
					c-1.404,1.908-2.359,3.078-4.234,3.078c-1.876,0-2.83-1.17-4.234-3.078c-1.386-1.886-3.112-4.233-6.516-4.233
					c-3.404,0-5.13,2.347-6.516,4.233c-1.404,1.908-2.358,3.078-4.234,3.078c-1.875,0-2.83-1.17-4.233-3.078
					c-1.387-1.886-3.112-4.233-6.516-4.233c-3.404,0-5.13,2.347-6.516,4.233c-1.404,1.908-2.359,3.078-4.234,3.078
					c-1.875,0-2.83-1.17-4.233-3.078c-1.386-1.886-3.112-4.233-6.516-4.233c-3.404,0-5.129,2.347-6.516,4.233
					c-1.402,1.908-2.357,3.078-4.232,3.078s-2.83-1.17-4.233-3.078c-1.387-1.886-3.113-4.233-6.517-4.233
					c-3.404,0-5.13,2.347-6.516,4.233c-0.895,1.217-1.609,2.129-2.495,2.633c0.712,0.661,1.431,1.314,2.165,1.951
					C304.855,319.085,305.666,317.988,306.384,317.013z"/>
				<path style="fill:#052257;" d="M332.115,331.213c1.875,0,2.83,1.169,4.233,3.078c1.387,1.886,3.112,4.233,6.516,4.233
					c3.405,0,5.13-2.347,6.517-4.233c1.403-1.908,2.358-3.078,4.233-3.078c1.875,0,2.83,1.169,4.233,3.078
					c1.386,1.886,3.112,4.233,6.516,4.233c3.404,0,5.13-2.347,6.517-4.233c1.403-1.908,2.358-3.078,4.233-3.078
					c1.876,0,2.83,1.169,4.233,3.078c0.821,1.116,1.764,2.391,3.101,3.248c3.486-0.978,6.882-2.171,10.171-3.566
					c1.276-1.714,2.231-2.759,3.997-2.759c0.513,0,0.954,0.095,1.358,0.262c0.961-0.489,1.908-1,2.847-1.524
					c-1.062-0.905-2.395-1.571-4.205-1.571c-3.405,0-5.131,2.347-6.517,4.233c-1.404,1.908-2.359,3.078-4.234,3.078
					c-1.876,0-2.83-1.17-4.234-3.078c-1.386-1.886-3.112-4.233-6.516-4.233c-3.404,0-5.13,2.347-6.516,4.233
					c-1.404,1.908-2.358,3.078-4.234,3.078c-1.875,0-2.83-1.17-4.233-3.078c-1.387-1.886-3.112-4.233-6.516-4.233
					c-3.404,0-5.13,2.347-6.516,4.233c-1.404,1.908-2.359,3.078-4.234,3.078c-1.875,0-2.83-1.17-4.233-3.078
					c-1.386-1.886-3.112-4.233-6.516-4.233c-3.404,0-5.129,2.347-6.516,4.233c-0.21,0.286-0.409,0.55-0.604,0.802
					c0.89,0.395,1.788,0.775,2.694,1.14c0.065-0.088,0.13-0.177,0.194-0.263C329.285,332.383,330.24,331.213,332.115,331.213z"/>
			</g>
			<g>
				<g>
					<g>
						
							<ellipse transform="matrix(0.229 -0.9734 0.9734 0.229 241.8384 690.69)" style="fill:none;stroke:#FCFDFF;stroke-width:3;stroke-miterlimit:10;" cx="556.953" cy="192.672" rx="7.297" ry="7.297"/>
						
							<ellipse transform="matrix(0.229 -0.9734 0.9734 0.229 210.122 715.8099)" style="fill:none;stroke:#FCFDFF;stroke-width:3;stroke-miterlimit:10;" cx="556.953" cy="225.255" rx="7.297" ry="7.297"/>
					</g>
					<g>
						
							<ellipse transform="matrix(0.2305 -0.9731 0.9731 0.2305 237.7883 718.614)" style="fill:none;stroke:#FCFDFF;stroke-width:3;stroke-miterlimit:10;" cx="573.244" cy="208.963" rx="7.297" ry="7.297"/>
						<path style="fill:none;stroke:#FCFDFF;stroke-width:3;stroke-miterlimit:10;" d="M533.365,208.963
							c0-4.03,3.267-7.297,7.297-7.297s7.297,3.267,7.297,7.297c0,4.03-3.267,7.297-7.297,7.297S533.365,212.993,533.365,208.963z"
							/>
					</g>
				</g>
				<g>
					<g>
						
							<ellipse transform="matrix(0.229 -0.9734 0.9734 0.229 41.5145 219.1362)" style="fill:none;stroke:#04092C;stroke-width:3;stroke-miterlimit:10;" cx="159.098" cy="83.36" rx="7.297" ry="7.297"/>
						
							<ellipse transform="matrix(0.229 -0.9734 0.9734 0.229 9.7981 244.256)" style="fill:none;stroke:#04092C;stroke-width:3;stroke-miterlimit:10;" cx="159.098" cy="115.942" rx="7.297" ry="7.297"/>
					</g>
					<g>
						<path style="fill:none;stroke:#04092C;stroke-width:3;stroke-miterlimit:10;" d="M168.093,99.651
							c0-4.03,3.267-7.297,7.297-7.297c4.03,0,7.297,3.267,7.297,7.297c0,4.03-3.267,7.297-7.297,7.297
							C171.359,106.948,168.093,103.681,168.093,99.651z"/>
						
							<ellipse transform="matrix(0.2305 -0.9731 0.9731 0.2305 12.9253 215.6465)" style="fill:none;stroke:#04092C;stroke-width:3;stroke-miterlimit:10;" cx="142.807" cy="99.651" rx="7.297" ry="7.297"/>
					</g>
				</g>
			</g>
			<g>
				<path style="fill:#A8771E;" d="M474.088,99.534h-94.591c-2.484,0-4.497-2.014-4.497-4.497l0,0c0-2.484,2.013-4.497,4.497-4.497
					h94.591c2.484,0,4.497,2.013,4.497,4.497l0,0C478.585,97.52,476.572,99.534,474.088,99.534z"/>
				<path style="fill:#04092C;" d="M652.39,365.453h-94.591c-2.484,0-4.497-2.013-4.497-4.497l0,0c0-2.484,2.014-4.497,4.497-4.497
					h94.591c2.484,0,4.497,2.013,4.497,4.497l0,0C656.887,363.44,654.874,365.453,652.39,365.453z"/>
				<path style="fill:#052257;" d="M130.212,192.615H35.621c-2.484,0-4.497-2.014-4.497-4.497l0,0c0-2.484,2.013-4.497,4.497-4.497
					h94.591c2.484,0,4.497,2.013,4.497,4.497l0,0C134.71,190.602,132.696,192.615,130.212,192.615z"/>
			</g>
			<g>
				<g>
					<path style="fill:none;stroke:#A8771E;stroke-width:2;stroke-linecap:round;stroke-linejoin:round;stroke-miterlimit:10;" d="
						M72.784,290.861c-0.151-6.604-5.548-11.913-12.188-11.913s-12.038,5.309-12.188,11.913H72.784z"/>
					<path style="fill:none;stroke:#A8771E;stroke-width:2;stroke-linecap:round;stroke-linejoin:round;stroke-miterlimit:10;" d="
						M72.784,308.92c-0.151-6.604-5.548-11.913-12.188-11.913s-12.038,5.309-12.188,11.913H72.784z"/>
					<path style="fill:none;stroke:#A8771E;stroke-width:2;stroke-linecap:round;stroke-linejoin:round;stroke-miterlimit:10;" d="
						M72.784,326.979c-0.151-6.605-5.548-11.913-12.188-11.913s-12.038,5.309-12.188,11.913H72.784z"/>
					<path style="fill:none;stroke:#A8771E;stroke-width:2;stroke-linecap:round;stroke-linejoin:round;stroke-miterlimit:10;" d="
						M72.784,345.038c-0.151-6.604-5.548-11.913-12.188-11.913s-12.038,5.309-12.188,11.913H72.784z"/>
					<path style="fill:none;stroke:#A8771E;stroke-width:2;stroke-linecap:round;stroke-linejoin:round;stroke-miterlimit:10;" d="
						M72.784,363.097c-0.151-6.604-5.548-11.913-12.188-11.913s-12.038,5.309-12.188,11.913H72.784z"/>
					<path style="fill:none;stroke:#A8771E;stroke-width:2;stroke-linecap:round;stroke-linejoin:round;stroke-miterlimit:10;" d="
						M72.784,381.156c-0.151-6.604-5.548-11.913-12.188-11.913s-12.038,5.309-12.188,11.913H72.784z"/>
				</g>
				<g>
					<path style="fill:none;stroke:#04092C;stroke-width:3;stroke-miterlimit:10;" d="M456.325,454.461
						c6.605-0.151,11.913-5.548,11.913-12.188c0-6.641-5.309-12.038-11.913-12.188V454.461z"/>
					<path style="fill:none;stroke:#04092C;stroke-width:3;stroke-miterlimit:10;" d="M438.266,454.461
						c6.604-0.151,11.913-5.548,11.913-12.188c0-6.641-5.309-12.038-11.913-12.188V454.461z"/>
					<path style="fill:none;stroke:#04092C;stroke-width:3;stroke-miterlimit:10;" d="M420.207,454.461
						c6.604-0.151,11.913-5.548,11.913-12.188c0-6.641-5.309-12.038-11.913-12.188V454.461z"/>
					<path style="fill:none;stroke:#04092C;stroke-width:3;stroke-miterlimit:10;" d="M402.148,454.461
						c6.604-0.151,11.913-5.548,11.913-12.188c0-6.641-5.309-12.038-11.913-12.188V454.461z"/>
					<path style="fill:none;stroke:#04092C;stroke-width:3;stroke-miterlimit:10;" d="M384.089,454.461
						c6.604-0.151,11.913-5.548,11.913-12.188c0-6.641-5.309-12.038-11.913-12.188V454.461z"/>
					<path style="fill:none;stroke:#04092C;stroke-width:3;stroke-miterlimit:10;" d="M366.03,454.461
						c6.604-0.151,11.913-5.548,11.913-12.188c0-6.641-5.309-12.038-11.913-12.188V454.461z"/>
				</g>
				<g>
					<path style="fill:none;stroke:#FCFDFF;stroke-width:2;stroke-miterlimit:10;" d="M604.095,42.984h-11.369c-0.552,0-1-0.448-1-1
						V30.615c0-0.552,0.448-1,1-1h11.369c0.552,0,1,0.448,1,1v11.369C605.095,42.536,604.647,42.984,604.095,42.984z"/>
					<path style="fill:none;stroke:#FCFDFF;stroke-width:2;stroke-miterlimit:10;" d="M624.444,42.984h-11.369c-0.552,0-1-0.448-1-1
						V30.615c0-0.552,0.448-1,1-1h11.369c0.552,0,1,0.448,1,1v11.369C625.444,42.536,624.996,42.984,624.444,42.984z"/>
					<path style="fill:none;stroke:#FCFDFF;stroke-width:2;stroke-miterlimit:10;" d="M644.793,42.984h-11.369c-0.552,0-1-0.448-1-1
						V30.615c0-0.552,0.448-1,1-1h11.369c0.552,0,1,0.448,1,1v11.369C645.793,42.536,645.346,42.984,644.793,42.984z"/>
					<path style="fill:none;stroke:#FCFDFF;stroke-width:2;stroke-miterlimit:10;" d="M665.143,42.984h-11.369c-0.552,0-1-0.448-1-1
						V30.615c0-0.552,0.448-1,1-1h11.369c0.552,0,1,0.448,1,1v11.369C666.143,42.536,665.695,42.984,665.143,42.984z"/>
					<path style="fill:none;stroke:#FCFDFF;stroke-width:2;stroke-miterlimit:10;" d="M685.492,42.984h-11.369c-0.552,0-1-0.448-1-1
						V30.615c0-0.552,0.448-1,1-1h11.369c0.552,0,1,0.448,1,1v11.369C686.492,42.536,686.044,42.984,685.492,42.984z"/>
				</g>
				<g>
					<path style="fill:none;stroke:#FCFDFF;stroke-width:2;stroke-miterlimit:10;" d="M72.31,464.395H60.941c-0.552,0-1-0.448-1-1
						v-11.369c0-0.552,0.448-1,1-1H72.31c0.552,0,1,0.448,1,1v11.369C73.31,463.947,72.862,464.395,72.31,464.395z"/>
					<path style="fill:none;stroke:#FCFDFF;stroke-width:2;stroke-miterlimit:10;" d="M92.659,464.395H81.29c-0.552,0-1-0.448-1-1
						v-11.369c0-0.552,0.448-1,1-1h11.369c0.552,0,1,0.448,1,1v11.369C93.659,463.947,93.212,464.395,92.659,464.395z"/>
					<path style="fill:none;stroke:#FCFDFF;stroke-width:2;stroke-miterlimit:10;" d="M113.009,464.395H101.64c-0.552,0-1-0.448-1-1
						v-11.369c0-0.552,0.448-1,1-1h11.369c0.552,0,1,0.448,1,1v11.369C114.009,463.947,113.561,464.395,113.009,464.395z"/>
					<path style="fill:none;stroke:#FCFDFF;stroke-width:2;stroke-miterlimit:10;" d="M133.358,464.395h-11.369
						c-0.552,0-1-0.448-1-1v-11.369c0-0.552,0.448-1,1-1h11.369c0.552,0,1,0.448,1,1v11.369
						C134.358,463.947,133.91,464.395,133.358,464.395z"/>
					<path style="fill:none;stroke:#FCFDFF;stroke-width:2;stroke-miterlimit:10;" d="M153.707,464.395h-11.369
						c-0.552,0-1-0.448-1-1v-11.369c0-0.552,0.448-1,1-1h11.369c0.552,0,1,0.448,1,1v11.369
						C154.707,463.947,154.26,464.395,153.707,464.395z"/>
				</g>
			</g>
			<g>
				
					<ellipse transform="matrix(0.1582 -0.9874 0.9874 0.1582 -52.5416 556.2078)" style="fill:none;stroke:#FCFDFF;stroke-width:10;stroke-miterlimit:10;" cx="299.947" cy="308.92" rx="39.629" ry="39.629"/>
				<circle style="fill:none;stroke:#A8771E;stroke-width:10;stroke-miterlimit:10;" cx="50.553" cy="0" r="33.319"/>
				
					<ellipse transform="matrix(0.7071 -0.7071 0.7071 0.7071 -67.5002 638.1307)" style="fill:none;stroke:#052257;stroke-width:10;stroke-miterlimit:10;" cx="736.542" cy="400.545" rx="33.318" ry="33.318"/>
			</g>
		</g>
	</g>
</g>
</svg>
